<?xml version="1.0" standalone="no"?>
<!DOCTYPE svg PUBLIC "-//W3C//DTD SVG 20010904//EN"
 "http://www.w3.org/TR/2001/REC-SVG-20010904/DTD/svg10.dtd">
<svg version="1.0" xmlns="http://www.w3.org/2000/svg"
 width="1920.000000pt" height="1920.000000pt" viewBox="0 0 1920.000000 1920.000000"
 preserveAspectRatio="xMidYMid meet">
<metadata>
Created by potrace 1.14, written by Peter Selinger 2001-2017
</metadata>
<g transform="translate(0.000000,1920.000000) scale(0.100000,-0.100000)"
fill="#000000" stroke="none">
<path d="M0 9600 l0 -9600 9600 0 9600 0 0 9600 0 9600 -9600 0 -9600 0 0
-9600z m8374 4563 c296 -97 374 -133 471 -214 33 -27 93 -67 134 -87 l75 -37
159 -3 c92 -2 180 1 210 8 29 6 117 14 197 17 186 8 225 -3 338 -89 l82 -62
-6 -66 c-3 -36 -10 -101 -15 -145 -5 -44 -9 -113 -9 -155 0 -41 -7 -142 -14
-225 -9 -93 -16 -285 -17 -505 -1 -383 7 -487 55 -692 13 -57 27 -128 31 -158
19 -140 83 -308 238 -620 83 -168 174 -346 203 -396 29 -51 66 -118 82 -150
15 -33 58 -113 93 -179 36 -66 75 -145 88 -175 99 -237 178 -339 326 -416 139
-73 134 -68 320 -319 143 -193 235 -273 342 -295 50 -11 56 -15 70 -48 66
-161 134 -270 244 -396 47 -53 99 -166 156 -336 81 -241 170 -391 308 -515 49
-44 168 -159 265 -255 96 -96 195 -191 220 -212 25 -20 110 -71 190 -114 153
-81 220 -126 310 -209 76 -70 229 -174 327 -224 97 -48 228 -160 272 -231 29
-48 30 -50 10 -50 -12 0 -34 -8 -50 -17 -29 -17 -33 -17 -202 26 -95 24 -221
62 -282 83 -194 70 -310 106 -396 123 -46 9 -140 29 -209 45 -130 30 -312 50
-447 50 -278 0 -665 -154 -823 -327 -119 -130 -244 -336 -310 -511 -88 -234
-120 -397 -120 -613 0 -225 26 -296 170 -457 26 -29 71 -99 100 -155 188 -360
243 -422 430 -482 97 -31 226 -102 296 -164 87 -75 158 -119 226 -136 101 -27
254 -44 483 -55 126 -7 233 -14 238 -17 5 -3 -15 -20 -45 -38 -29 -18 -114
-70 -188 -115 -187 -115 -244 -145 -325 -169 -38 -11 -137 -41 -220 -67 -395
-123 -460 -138 -685 -154 -326 -24 -986 -6 -1118 30 -21 5 -73 15 -117 21 -44
6 -111 19 -150 29 -38 11 -113 26 -165 35 -52 9 -158 32 -235 51 -77 20 -194
44 -260 55 -66 11 -172 33 -235 50 -396 107 -359 94 -607 215 -98 47 -207 97
-243 111 -61 23 -155 71 -311 156 -36 20 -143 66 -236 101 -206 77 -215 82
-317 160 -98 74 -195 120 -313 148 -48 11 -126 32 -173 45 -92 28 -281 118
-317 152 -41 39 -98 134 -177 294 -99 201 -159 270 -305 349 -106 57 -161 104
-248 211 -32 39 -121 137 -198 217 -77 80 -153 164 -169 188 -35 52 -66 165
-66 245 0 92 -24 146 -209 477 -23 41 -62 101 -86 133 -25 31 -45 60 -45 63 0
3 41 50 91 105 102 110 157 150 275 201 108 47 195 107 278 192 83 86 129 150
236 326 56 93 95 146 125 170 24 19 53 47 64 62 30 37 80 147 87 188 24 141
100 295 187 383 43 42 134 67 248 67 85 0 235 33 301 66 26 13 98 59 160 101
62 42 136 92 163 111 68 46 140 107 189 160 63 69 171 212 196 261 12 24 41
65 64 90 35 37 156 209 190 269 5 7 30 78 56 157 34 101 75 193 139 312 49 92
99 193 111 223 12 30 61 138 110 240 122 253 174 404 200 577 27 187 25 332
-10 600 -9 69 -65 283 -95 362 -7 20 -25 77 -39 128 -14 50 -55 163 -91 250
-37 87 -95 238 -130 335 -36 98 -80 215 -98 261 -19 46 -51 137 -72 203 -43
139 -82 221 -132 282 -40 49 -167 147 -308 237 -153 98 -165 107 -165 126 0
10 24 44 53 75 47 50 60 58 112 70 33 7 114 13 179 13 112 1 127 -1 230 -36z
m4137 -2178 c106 -25 228 -55 269 -66 75 -20 194 -69 187 -76 -2 -2 -35 4 -73
13 -53 12 -104 15 -219 12 -141 -4 -157 -7 -265 -42 -120 -39 -319 -141 -401
-205 -25 -20 -59 -54 -75 -76 -16 -21 -57 -70 -92 -107 -89 -96 -104 -136
-110 -283 -8 -202 24 -282 162 -420 78 -77 233 -192 320 -237 58 -31 31 -33
-115 -9 -185 30 -223 44 -281 102 -51 51 -118 178 -133 249 -4 19 -20 76 -36
127 -16 50 -38 138 -49 196 -17 96 -18 112 -5 198 18 120 52 218 115 335 101
187 143 231 267 282 185 75 242 76 534 7z m627 -246 c2 -12 1 -38 -3 -58 l-7
-36 -18 44 c-9 25 -31 62 -49 83 l-32 37 53 -24 c37 -17 54 -31 56 -46z
m-7478 -288 c168 -57 293 -117 386 -187 32 -25 97 -68 144 -96 224 -136 273
-189 324 -352 30 -93 42 -115 70 -126 l23 -9 -22 -78 c-32 -109 -34 -112 -67
-129 -17 -9 -108 -46 -202 -84 -94 -37 -199 -84 -234 -104 -57 -34 -138 -70
-367 -164 l-90 -37 -170 0 c-123 1 -194 6 -255 18 -125 26 -260 68 -260 81 0
17 75 86 150 138 75 52 192 172 244 249 20 30 47 88 62 131 14 42 48 114 76
160 71 118 78 141 78 283 0 122 -17 223 -55 318 -18 46 -18 50 -2 44 6 -2 82
-28 167 -56z m7280 -200 c0 -26 -85 -98 -132 -113 -25 -7 -48 -8 -70 -2 -31 9
-33 13 -36 60 l-3 51 63 10 c35 6 89 11 121 12 50 1 57 -1 57 -18z m1278
-4727 c-10 -10 -28 6 -28 24 0 15 1 15 17 -1 9 -9 14 -19 11 -23z m-246 -551
c-2 -219 1 -499 7 -623 l10 -225 -44 -105 c-44 -104 -155 -290 -173 -290 -19
0 -42 332 -42 595 0 305 6 337 132 760 23 76 105 285 112 285 1 0 -1 -179 -2
-397z m-911 -260 c11 -25 24 -66 30 -90 5 -25 28 -99 51 -166 33 -99 42 -140
46 -218 l4 -96 -35 -27 c-20 -15 -73 -43 -119 -63 -109 -47 -183 -50 -245 -11
-53 35 -128 127 -164 203 -25 51 -29 72 -29 143 0 132 27 170 201 277 117 73
165 95 207 95 30 0 35 -5 53 -47z"/>
</g>
</svg>
